<svg xmlns="http://www.w3.org/2000/svg" width="12.375" height="12.38" viewBox="0 0 12.375 12.38">
  <defs>
    <style>
      .cls-1 {
        fill: #fff;
        fill-rule: evenodd;
      }
    </style>
  </defs>
  <path id="Dr" class="cls-1" d="M779.5,2260.68a6.18,6.18,0,1,1,6.18-6.18,6.184,6.184,0,0,1-6.18,6.18m5.213-5.34a7.821,7.821,0,0,0-3.289-.22,22.361,22.361,0,0,1,1.023,3.76,5.271,5.271,0,0,0,2.266-3.54m-3.147,4.03a22.682,22.682,0,0,0-1.13-4.01,0.038,0.038,0,0,1-.022.01,7.271,7.271,0,0,0-4.156,3.3,5.267,5.267,0,0,0,5.308.7m-5.99-1.33a8.372,8.372,0,0,1,4.293-3.49c0.067-.02.135-0.04,0.209-0.06q-0.2-.45-0.428-0.9a19.382,19.382,0,0,1-5.429.76c0,0.05,0,.1,0,0.16a5.293,5.293,0,0,0,1.357,3.53m-1.246-4.61a19.833,19.833,0,0,0,4.885-.65,34.273,34.273,0,0,0-1.959-3.05,5.31,5.31,0,0,0-2.926,3.7m3.932-4.05a26.653,26.653,0,0,1,1.972,3.09,6.037,6.037,0,0,0,2.766-1.91,5.25,5.25,0,0,0-3.5-1.33,5.045,5.045,0,0,0-1.238.15m5.324,1.79a7.053,7.053,0,0,1-2.947,2.08c0.123,0.25.242,0.51,0.351,0.76,0.039,0.1.074,0.19,0.113,0.28a12.247,12.247,0,0,1,3.676.17,5.252,5.252,0,0,0-1.193-3.29" transform="translate(-773.313 -2248.31)"/>
</svg>
